<?xml version="1.0" standalone="no"?>
<!DOCTYPE svg PUBLIC "-//W3C//DTD SVG 20010904//EN"
 "http://www.w3.org/TR/2001/REC-SVG-20010904/DTD/svg10.dtd">
<svg version="1.0" xmlns="http://www.w3.org/2000/svg"
 width="200.000000pt" height="200.000000pt" viewBox="0 0 200.000000 200.000000"
 preserveAspectRatio="xMidYMid meet">
<metadata>
Created by potrace 1.11, written by Peter Selinger 2001-2013
</metadata>
<g transform="translate(0.000000,200.000000) scale(0.100000,-0.100000)"
fill="#000000" stroke="none">
<path d="M198 1422 l-28 -3 0 -315 0 -314 120 1 120 2 0 38 0 39 -70 0 -70 0
0 108 0 107 50 -3 c52 -4 53 -3 53 43 0 8 -1 20 -2 25 0 6 -23 10 -51 10 l-50
0 0 94 0 94 53 0 c89 0 86 -1 84 37 -1 19 -4 35 -7 36 -16 3 -179 3 -202 1z"/>
<path d="M530 1297 c-56 -19 -82 -73 -71 -149 1 -5 16 -8 35 -8 31 0 34 2 40
40 5 30 13 44 32 52 37 17 56 -7 59 -76 l2 -55 -42 -16 c-89 -34 -146 -107
-140 -181 2 -16 3 -34 4 -41 1 -6 13 -25 27 -42 21 -26 33 -31 69 -31 27 0 51
7 68 20 l26 20 6 -20 c5 -17 14 -20 38 -18 l32 3 0 217 c-1 229 -5 254 -49
277 -32 17 -97 21 -136 8z m95 -339 c0 -81 -1 -83 -28 -92 -43 -15 -62 15 -58
88 1 17 64 86 79 86 4 0 7 -37 7 -82z"/>
<path d="M783 1265 l-2 -35 65 0 c35 0 64 -3 64 -7 0 -4 -30 -87 -66 -185 -36
-98 -68 -193 -71 -212 l-5 -33 123 1 123 1 3 33 c5 35 5 35 -89 34 -30 0 -48
4 -48 11 0 7 12 44 26 82 88 239 106 293 109 318 l3 27 -117 0 -116 0 -2 -35z"/>
<path d="M1034 1283 c3 -10 12 -49 21 -88 9 -38 18 -77 20 -85 80 -338 82
-357 50 -390 -11 -11 -31 -21 -45 -23 -28 -4 -41 -44 -18 -58 14 -10 7 -10
-552 -10 -212 0 -391 -4 -399 -8 -20 -12 -7 -38 21 -42 13 -3 304 -4 647 -4
586 0 625 1 635 18 18 29 -9 36 -141 34 -68 -1 -123 -1 -123 1 0 2 13 15 30
29 19 16 35 43 44 76 13 45 116 544 116 561 0 3 -20 6 -44 6 -49 0 -50 -2 -61
-95 -3 -27 -8 -61 -11 -73 -7 -36 -21 -140 -24 -182 -2 -32 -8 -9 -46 198
l-28 152 -49 0 c-41 0 -48 -3 -43 -17z"/>
<path d="M1779 1086 c0 -14 0 -55 0 -91 0 -203 0 -205 21 -205 16 0 19 6 16
34 -4 62 9 73 26 20 11 -36 21 -50 37 -52 l21 -3 -25 67 -25 67 25 54 25 54
-23 -3 c-15 -2 -26 -16 -39 -48 -19 -49 -19 -49 -22 65 -1 48 -4 60 -18 63
-13 3 -18 -3 -19 -22z"/>
<path d="M1380 1080 c0 -5 0 -13 0 -17 0 -5 5 -9 10 -9 6 -1 14 -2 19 -3 4 0
8 -57 8 -126 0 -69 3 -128 6 -131 3 -4 13 -4 21 -1 12 5 14 29 14 126 -1 119
2 136 25 136 7 0 13 8 15 18 3 15 -5 17 -57 17 -34 0 -61 -4 -61 -10z"/>
<path d="M1673 1029 c-11 -4 -25 -20 -30 -36 -11 -31 -10 -136 1 -171 17 -51
91 -44 98 9 4 23 1 29 -14 29 -10 0 -18 -6 -18 -14 0 -17 -18 -31 -28 -22 -3
4 -7 22 -8 41 -3 32 -2 34 34 37 34 3 37 5 38 38 3 72 -25 107 -73 89z m35
-67 c2 -23 -1 -32 -12 -32 -21 0 -28 15 -20 45 9 34 28 26 32 -13z"/>
<path d="M1520 910 c0 -113 1 -120 20 -120 19 0 20 7 20 105 0 63 4 105 10
105 6 0 11 -4 11 -10 1 -5 2 -15 3 -22 2 -17 23 -21 29 -5 3 7 3 25 0 40 -4
20 -11 27 -28 27 -13 0 -26 -6 -28 -12 -4 -10 -6 -10 -6 0 -1 6 -8 12 -16 12
-12 0 -15 -20 -15 -120z"/>
</g>
</svg>
